<svg width="72" height="29" viewBox="0 0 72 29" fill="none" xmlns="http://www.w3.org/2000/svg">
<path d="M8.94989 9.44639H6.59338V20.6398H8.94989V16.1564H13.9125V19.3018C13.9125 19.5681 13.8959 19.8543 13.8626 20.1605C13.836 20.4667 13.7561 20.7729 13.623 21.0791C13.4965 21.3787 13.3034 21.6683 13.0438 21.9479C12.7842 22.2274 12.4247 22.4737 11.9654 22.6868C11.5128 22.8998 10.9436 23.0695 10.2579 23.196C9.57895 23.3291 8.75018 23.3957 7.77163 23.3957C6.79974 23.3957 5.9743 23.3291 5.2953 23.196C4.61631 23.0695 4.04715 22.8998 3.58784 22.6868C3.13517 22.4737 2.77903 22.2274 2.51942 21.9479C2.2598 21.6683 2.06343 21.3787 1.93029 21.0791C1.79716 20.7729 1.71395 20.4667 1.68066 20.1605C1.64738 19.8543 1.63074 19.5681 1.63074 19.3018V10.7545C1.63074 10.4882 1.64738 10.2053 1.68066 9.90571C1.71395 9.5995 1.79383 9.29661 1.92031 8.99706C2.05344 8.6975 2.24982 8.41126 2.50943 8.13833C2.77571 7.85875 3.13517 7.61577 3.58784 7.40941C4.0405 7.1964 4.603 7.02665 5.27533 6.90017C5.95433 6.77369 6.77644 6.71045 7.74168 6.71045C8.72688 6.71045 9.56231 6.77369 10.248 6.90017C10.9336 7.02665 11.5061 7.1964 11.9654 7.40941C12.4247 7.61577 12.7842 7.85875 13.0438 8.13833C13.3034 8.41126 13.4965 8.6975 13.623 8.99706C13.7561 9.29661 13.836 9.5995 13.8626 9.90571C13.8959 10.2053 13.9125 10.4882 13.9125 10.7545V13.9297H8.94989V9.44639Z" fill="#00FFA3"/>
<path d="M20.8243 20.6398H23.1808V9.44639H20.8243V20.6398ZM21.9326 23.3957C20.9674 23.3957 20.1453 23.3291 19.4663 23.196C18.7873 23.0695 18.2215 22.8998 17.7688 22.6868C17.3228 22.4737 16.97 22.2274 16.7104 21.9479C16.4574 21.6683 16.2677 21.3787 16.1412 21.0791C16.0147 20.7729 15.9349 20.4667 15.9016 20.1605C15.875 19.8543 15.8616 19.5681 15.8616 19.3018V10.7545C15.8616 10.4882 15.875 10.2053 15.9016 9.90571C15.9349 9.5995 16.0147 9.29661 16.1412 8.99706C16.2677 8.6975 16.4574 8.41126 16.7104 8.13833C16.97 7.85875 17.3228 7.61577 17.7688 7.40941C18.2215 7.1964 18.784 7.02665 19.4563 6.90017C20.1353 6.77369 20.9607 6.71045 21.9326 6.71045C22.9112 6.71045 23.7433 6.77369 24.4289 6.90017C25.1212 7.02665 25.6971 7.1964 26.1564 7.40941C26.6157 7.61577 26.9785 7.85875 27.2448 8.13833C27.511 8.41126 27.7107 8.6975 27.8439 8.99706C27.977 9.29661 28.0602 9.5995 28.0935 9.90571C28.1268 10.2053 28.1434 10.4882 28.1434 10.7545V19.3018C28.1434 19.5681 28.1268 19.8543 28.0935 20.1605C28.0602 20.4667 27.977 20.7729 27.8439 21.0791C27.7107 21.3787 27.511 21.6683 27.2448 21.9479C26.9785 22.2274 26.6157 22.4737 26.1564 22.6868C25.6971 22.8998 25.1212 23.0695 24.4289 23.196C23.7433 23.3291 22.9112 23.3957 21.9326 23.3957Z" fill="#00FFA3"/>
<path d="M37.4916 9.44639H35.1351V20.6398H37.4916V16.1564H42.4542V19.3018C42.4542 19.5681 42.4376 19.8543 42.4043 20.1605C42.3777 20.4667 42.2978 20.7729 42.1646 21.0791C42.0382 21.3787 41.8451 21.6683 41.5855 21.9479C41.3259 22.2274 40.9664 22.4737 40.5071 22.6868C40.0544 22.8998 39.4853 23.0695 38.7996 23.196C38.1206 23.3291 37.2919 23.3957 36.3133 23.3957C35.3414 23.3957 34.516 23.3291 33.837 23.196C33.158 23.0695 32.5888 22.8998 32.1295 22.6868C31.6769 22.4737 31.3207 22.2274 31.0611 21.9479C30.8015 21.6683 30.6051 21.3787 30.472 21.0791C30.3388 20.7729 30.2556 20.4667 30.2223 20.1605C30.1891 19.8543 30.1724 19.5681 30.1724 19.3018V10.7545C30.1724 10.4882 30.1891 10.2053 30.2223 9.90571C30.2556 9.5995 30.3355 9.29661 30.462 8.99706C30.5951 8.6975 30.7915 8.41126 31.0511 8.13833C31.3174 7.85875 31.6769 7.61577 32.1295 7.40941C32.5822 7.1964 33.1447 7.02665 33.817 6.90017C34.496 6.77369 35.3181 6.71045 36.2834 6.71045C37.2686 6.71045 38.104 6.77369 38.7896 6.90017C39.4753 7.02665 40.0478 7.1964 40.5071 7.40941C40.9664 7.61577 41.3259 7.85875 41.5855 8.13833C41.8451 8.41126 42.0382 8.6975 42.1646 8.99706C42.2978 9.29661 42.3777 9.5995 42.4043 9.90571C42.4376 10.2053 42.4542 10.4882 42.4542 10.7545V13.9297H37.4916V9.44639Z" fill="#00FFA3"/>
<path d="M49.366 20.6398H51.7225V9.44639H49.366V20.6398ZM50.4743 23.3957C49.5091 23.3957 48.687 23.3291 48.008 23.196C47.329 23.0695 46.7632 22.8998 46.3105 22.6868C45.8645 22.4737 45.5117 22.2274 45.2521 21.9479C44.9991 21.6683 44.8094 21.3787 44.6829 21.0791C44.5564 20.7729 44.4765 20.4667 44.4433 20.1605C44.4166 19.8543 44.4033 19.5681 44.4033 19.3018V10.7545C44.4033 10.4882 44.4166 10.2053 44.4433 9.90571C44.4765 9.5995 44.5564 9.29661 44.6829 8.99706C44.8094 8.6975 44.9991 8.41126 45.2521 8.13833C45.5117 7.85875 45.8645 7.61577 46.3105 7.40941C46.7632 7.1964 47.3257 7.02665 47.998 6.90017C48.677 6.77369 49.5024 6.71045 50.4743 6.71045C51.4529 6.71045 52.285 6.77369 52.9706 6.90017C53.6629 7.02665 54.2387 7.1964 54.6981 7.40941C55.1574 7.61577 55.5202 7.85875 55.7864 8.13833C56.0527 8.41126 56.2524 8.6975 56.3856 8.99706C56.5187 9.29661 56.6019 9.5995 56.6352 9.90571C56.6685 10.2053 56.6851 10.4882 56.6851 10.7545V19.3018C56.6851 19.5681 56.6685 19.8543 56.6352 20.1605C56.6019 20.4667 56.5187 20.7729 56.3856 21.0791C56.2524 21.3787 56.0527 21.6683 55.7864 21.9479C55.5202 22.2274 55.1574 22.4737 54.6981 22.6868C54.2387 22.8998 53.6629 23.0695 52.9706 23.196C52.285 23.3291 51.4529 23.3957 50.4743 23.3957Z" fill="#00FFA3"/>
<path d="M63.4671 19.0821L63.0577 23.0063H57.9153L60.4715 7.0799H69.0388L71.595 23.0063H66.4327L66.0432 19.0821H63.4671ZM63.7267 17.2948H65.7836L64.7452 9.41644L63.7267 17.2948Z" fill="#00FFA3"/>
<path d="M66.8876 0.852295H72L69.0178 7.66885H63.9053L66.8876 0.852295Z" fill="#00FFA3"/>
<path d="M2.98224 22.1536H8.09466L5.11242 28.9701H0L2.98224 22.1536Z" fill="#00FFA3"/>
</svg>
