<svg width="80" height="31" viewBox="0 0 80 31" fill="none" xmlns="http://www.w3.org/2000/svg">
<path d="M9.86075 9.46874H7.26441V21.8014H9.86075V16.8617H15.3285V20.3272C15.3285 20.6205 15.3101 20.9359 15.2735 21.2733C15.2441 21.6107 15.1561 21.9481 15.0094 22.2854C14.8701 22.6155 14.6574 22.9345 14.3713 23.2426C14.0853 23.5506 13.6893 23.822 13.1832 24.0567C12.6845 24.2914 12.0574 24.4784 11.3019 24.6177C10.5538 24.7644 9.64073 24.8378 8.56258 24.8378C7.49178 24.8378 6.58232 24.7644 5.83422 24.6177C5.08613 24.4784 4.45904 24.2914 3.95298 24.0567C3.45424 23.822 3.06186 23.5506 2.77582 23.2426C2.48978 22.9345 2.27342 22.6155 2.12674 22.2854C1.98005 21.9481 1.88837 21.6107 1.8517 21.2733C1.81503 20.9359 1.79669 20.6205 1.79669 20.3272V10.9099C1.79669 10.6166 1.81503 10.3049 1.8517 9.97481C1.88837 9.63743 1.97638 9.30372 2.11573 8.97368C2.26242 8.64363 2.47878 8.32826 2.76482 8.02755C3.05819 7.71951 3.45424 7.45181 3.95298 7.22445C4.45171 6.98975 5.07146 6.80272 5.81222 6.66337C6.56032 6.52402 7.46611 6.45435 8.52958 6.45435C9.61506 6.45435 10.5355 6.52402 11.2909 6.66337C12.0464 6.80272 12.6771 6.98975 13.1832 7.22445C13.6893 7.45181 14.0853 7.71951 14.3713 8.02755C14.6574 8.32826 14.8701 8.64363 15.0094 8.97368C15.1561 9.30372 15.2441 9.63743 15.2735 9.97481C15.3101 10.3049 15.3285 10.6166 15.3285 10.9099V14.4084H9.86075V9.46874Z" fill="#00FFA3"/>
<path d="M22.9437 21.8014H25.54V9.46874H22.9437V21.8014ZM24.1648 24.8378C23.1014 24.8378 22.1956 24.7644 21.4475 24.6177C20.6994 24.4784 20.076 24.2914 19.5772 24.0567C19.0858 23.822 18.6971 23.5506 18.4111 23.2426C18.1324 22.9345 17.9233 22.6155 17.784 22.2854C17.6446 21.9481 17.5566 21.6107 17.52 21.2733C17.4906 20.9359 17.476 20.6205 17.476 20.3272V10.9099C17.476 10.6166 17.4906 10.3049 17.52 9.97481C17.5566 9.63743 17.6446 9.30372 17.784 8.97368C17.9233 8.64363 18.1324 8.32826 18.4111 8.02755C18.6971 7.71951 19.0858 7.45181 19.5772 7.22445C20.076 6.98975 20.6957 6.80272 21.4365 6.66337C22.1846 6.52402 23.094 6.45435 24.1648 6.45435C25.243 6.45435 26.1598 6.52402 26.9152 6.66337C27.678 6.80272 28.3124 6.98975 28.8185 7.22445C29.3245 7.45181 29.7242 7.71951 30.0176 8.02755C30.311 8.32826 30.531 8.64363 30.6777 8.97368C30.8244 9.30372 30.9161 9.63743 30.9527 9.97481C30.9894 10.3049 31.0077 10.6166 31.0077 10.9099V20.3272C31.0077 20.6205 30.9894 20.9359 30.9527 21.2733C30.9161 21.6107 30.8244 21.9481 30.6777 22.2854C30.531 22.6155 30.311 22.9345 30.0176 23.2426C29.7242 23.5506 29.3245 23.822 28.8185 24.0567C28.3124 24.2914 27.678 24.4784 26.9152 24.6177C26.1598 24.7644 25.243 24.8378 24.1648 24.8378Z" fill="#00FFA3"/>
<path d="M41.3073 9.46874H38.711V21.8014H41.3073V16.8617H46.775V20.3272C46.775 20.6205 46.7567 20.9359 46.72 21.2733C46.6907 21.6107 46.6027 21.9481 46.456 22.2854C46.3166 22.6155 46.1039 22.9345 45.8179 23.2426C45.5319 23.5506 45.1358 23.822 44.6297 24.0567C44.131 24.2914 43.5039 24.4784 42.7485 24.6177C42.0004 24.7644 41.0873 24.8378 40.0091 24.8378C38.9383 24.8378 38.0289 24.7644 37.2808 24.6177C36.5327 24.4784 35.9056 24.2914 35.3995 24.0567C34.9008 23.822 34.5084 23.5506 34.2224 23.2426C33.9363 22.9345 33.72 22.6155 33.5733 22.2854C33.4266 21.9481 33.3349 21.6107 33.2982 21.2733C33.2616 20.9359 33.2432 20.6205 33.2432 20.3272V10.9099C33.2432 10.6166 33.2616 10.3049 33.2982 9.97481C33.3349 9.63743 33.4229 9.30372 33.5623 8.97368C33.709 8.64363 33.9253 8.32826 34.2114 8.02755C34.5047 7.71951 34.9008 7.45181 35.3995 7.22445C35.8983 6.98975 36.518 6.80272 37.2588 6.66337C38.0069 6.52402 38.9126 6.45435 39.9761 6.45435C41.0616 6.45435 41.9821 6.52402 42.7375 6.66337C43.4929 6.80272 44.1237 6.98975 44.6297 7.22445C45.1358 7.45181 45.5319 7.71951 45.8179 8.02755C46.1039 8.32826 46.3166 8.64363 46.456 8.97368C46.6027 9.30372 46.6907 9.63743 46.72 9.97481C46.7567 10.3049 46.775 10.6166 46.775 10.9099V14.4084H41.3073V9.46874Z" fill="#00FFA3"/>
<path d="M54.3902 21.8014H56.9866V9.46874H54.3902V21.8014ZM55.6114 24.8378C54.5479 24.8378 53.6421 24.7644 52.894 24.6177C52.1459 24.4784 51.5225 24.2914 51.0238 24.0567C50.5324 23.822 50.1437 23.5506 49.8576 23.2426C49.5789 22.9345 49.3699 22.6155 49.2305 22.2854C49.0912 21.9481 49.0032 21.6107 48.9665 21.2733C48.9372 20.9359 48.9225 20.6205 48.9225 20.3272V10.9099C48.9225 10.6166 48.9372 10.3049 48.9665 9.97481C49.0032 9.63743 49.0912 9.30372 49.2305 8.97368C49.3699 8.64363 49.5789 8.32826 49.8576 8.02755C50.1437 7.71951 50.5324 7.45181 51.0238 7.22445C51.5225 6.98975 52.1423 6.80272 52.883 6.66337C53.6311 6.52402 54.5406 6.45435 55.6114 6.45435C56.6895 6.45435 57.6063 6.52402 58.3617 6.66337C59.1245 6.80272 59.7589 6.98975 60.265 7.22445C60.7711 7.45181 61.1708 7.71951 61.4642 8.02755C61.7575 8.32826 61.9776 8.64363 62.1242 8.97368C62.2709 9.30372 62.3626 9.63743 62.3993 9.97481C62.4359 10.3049 62.4543 10.6166 62.4543 10.9099V20.3272C62.4543 20.6205 62.4359 20.9359 62.3993 21.2733C62.3626 21.6107 62.2709 21.9481 62.1242 22.2854C61.9776 22.6155 61.7575 22.9345 61.4642 23.2426C61.1708 23.5506 60.7711 23.822 60.265 24.0567C59.7589 24.2914 59.1245 24.4784 58.3617 24.6177C57.6063 24.7644 56.6895 24.8378 55.6114 24.8378Z" fill="#00FFA3"/>
<path d="M69.9265 20.0851L69.4754 24.4087H63.8097L66.626 6.8614H76.0653L78.8816 24.4087H73.1939L72.7648 20.0851H69.9265ZM70.2125 18.1159H72.4788L71.3347 9.43574L70.2125 18.1159Z" fill="#00FFA3"/>
<path d="M73.6951 0H79.3279L76.0421 7.51032H70.4094L73.6951 0Z" fill="#00FFA3"/>
<path d="M3.28577 23.4692H8.91851L5.63274 30.9796H0L3.28577 23.4692Z" fill="#00FFA3"/>
</svg>
