<svg width="98" height="98" viewBox="0 0 98 98" fill="none" xmlns="http://www.w3.org/2000/svg">
<path d="M0 49C0 21.938 21.938 0 49 0C76.062 0 98 21.938 98 49C98 76.062 76.062 98 49 98C21.938 98 0 76.062 0 49Z" fill="#00FFA3"/>
<path d="M20.9458 44.49H18.5776V55.7391H20.9458V51.2335H25.9331V54.3944C25.9331 54.662 25.9164 54.9497 25.883 55.2574C25.8562 55.5652 25.7759 55.8729 25.6421 56.1806C25.515 56.4817 25.321 56.7727 25.0601 57.0537C24.7992 57.3346 24.4379 57.5822 23.9763 57.7962C23.5214 58.0103 22.9494 58.1809 22.2604 58.308C21.578 58.4418 20.7451 58.5087 19.7617 58.5087C18.785 58.5087 17.9554 58.4418 17.2731 58.308C16.5907 58.1809 16.0187 58.0103 15.5571 57.7962C15.1022 57.5822 14.7443 57.3346 14.4834 57.0537C14.2225 56.7727 14.0251 56.4817 13.8913 56.1806C13.7575 55.8729 13.6739 55.5652 13.6404 55.2574C13.607 54.9497 13.5903 54.662 13.5903 54.3944V45.8046C13.5903 45.537 13.607 45.2527 13.6404 44.9516C13.6739 44.6439 13.7542 44.3395 13.8813 44.0385C14.0151 43.7374 14.2124 43.4497 14.4733 43.1755C14.7409 42.8945 15.1022 42.6503 15.5571 42.4429C16.012 42.2288 16.5773 42.0582 17.253 41.9311C17.9354 41.804 18.7616 41.7405 19.7316 41.7405C20.7217 41.7405 21.5613 41.804 22.2504 41.9311C22.9394 42.0582 23.5147 42.2288 23.9763 42.4429C24.4379 42.6503 24.7992 42.8945 25.0601 43.1755C25.321 43.4497 25.515 43.7374 25.6421 44.0385C25.7759 44.3395 25.8562 44.6439 25.883 44.9516C25.9164 45.2527 25.9331 45.537 25.9331 45.8046V48.9957H20.9458V44.49Z" fill="black"/>
<path d="M32.8793 55.7391H35.2475V44.49H32.8793V55.7391ZM33.9931 58.5087C33.0231 58.5087 32.1969 58.4418 31.5145 58.308C30.8322 58.1809 30.2635 58.0103 29.8086 57.7962C29.3604 57.5822 29.0058 57.3346 28.7449 57.0537C28.4907 56.7727 28.3 56.4817 28.1729 56.1806C28.0458 55.8729 27.9655 55.5652 27.9321 55.2574C27.9053 54.9497 27.8919 54.662 27.8919 54.3944V45.8046C27.8919 45.537 27.9053 45.2527 27.9321 44.9516C27.9655 44.6439 28.0458 44.3395 28.1729 44.0385C28.3 43.7374 28.4907 43.4497 28.7449 43.1755C29.0058 42.8945 29.3604 42.6503 29.8086 42.4429C30.2635 42.2288 30.8288 42.0582 31.5045 41.9311C32.1869 41.804 33.0164 41.7405 33.9931 41.7405C34.9766 41.7405 35.8128 41.804 36.5019 41.9311C37.1976 42.0582 37.7763 42.2288 38.2379 42.4429C38.6995 42.6503 39.0641 42.8945 39.3317 43.1755C39.5993 43.4497 39.8 43.7374 39.9338 44.0385C40.0676 44.3395 40.1512 44.6439 40.1846 44.9516C40.2181 45.2527 40.2348 45.537 40.2348 45.8046V54.3944C40.2348 54.662 40.2181 54.9497 40.1846 55.2574C40.1512 55.5652 40.0676 55.8729 39.9338 56.1806C39.8 56.4817 39.5993 56.7727 39.3317 57.0537C39.0641 57.3346 38.6995 57.5822 38.2379 57.7962C37.7763 58.0103 37.1976 58.1809 36.5019 58.308C35.8128 58.4418 34.9766 58.5087 33.9931 58.5087Z" fill="black"/>
<path d="M49.6295 44.49H47.2612V55.7391H49.6295V51.2335H54.6168V54.3944C54.6168 54.662 54.6 54.9497 54.5666 55.2574C54.5398 55.5652 54.4596 55.8729 54.3258 56.1806C54.1987 56.4817 54.0046 56.7727 53.7437 57.0537C53.4828 57.3346 53.1216 57.5822 52.66 57.7962C52.2051 58.0103 51.6331 58.1809 50.944 58.308C50.2616 58.4418 49.4288 58.5087 48.4453 58.5087C47.4686 58.5087 46.6391 58.4418 45.9567 58.308C45.2743 58.1809 44.7023 58.0103 44.2407 57.7962C43.7858 57.5822 43.4279 57.3346 43.167 57.0537C42.9061 56.7727 42.7087 56.4817 42.5749 56.1806C42.4411 55.8729 42.3575 55.5652 42.3241 55.2574C42.2906 54.9497 42.2739 54.662 42.2739 54.3944V45.8046C42.2739 45.537 42.2906 45.2527 42.3241 44.9516C42.3575 44.6439 42.4378 44.3395 42.5649 44.0385C42.6987 43.7374 42.8961 43.4497 43.157 43.1755C43.4246 42.8945 43.7858 42.6503 44.2407 42.4429C44.6956 42.2288 45.2609 42.0582 45.9366 41.9311C46.619 41.804 47.4452 41.7405 48.4152 41.7405C49.4053 41.7405 50.2449 41.804 50.934 41.9311C51.623 42.0582 52.1984 42.2288 52.66 42.4429C53.1216 42.6503 53.4828 42.8945 53.7437 43.1755C54.0046 43.4497 54.1987 43.7374 54.3258 44.0385C54.4596 44.3395 54.5398 44.6439 54.5666 44.9516C54.6 45.2527 54.6168 45.537 54.6168 45.8046V48.9957H49.6295V44.49Z" fill="black"/>
<path d="M61.5629 55.7391H63.9311V44.49H61.5629V55.7391ZM62.6768 58.5087C61.7067 58.5087 60.8805 58.4418 60.1982 58.308C59.5158 58.1809 58.9471 58.0103 58.4922 57.7962C58.044 57.5822 57.6894 57.3346 57.4285 57.0537C57.1743 56.7727 56.9837 56.4817 56.8566 56.1806C56.7294 55.8729 56.6492 55.5652 56.6157 55.2574C56.589 54.9497 56.5756 54.662 56.5756 54.3944V45.8046C56.5756 45.537 56.589 45.2527 56.6157 44.9516C56.6492 44.6439 56.7294 44.3395 56.8566 44.0385C56.9837 43.7374 57.1743 43.4497 57.4285 43.1755C57.6894 42.8945 58.044 42.6503 58.4922 42.4429C58.9471 42.2288 59.5124 42.0582 60.1881 41.9311C60.8705 41.804 61.7 41.7405 62.6768 41.7405C63.6602 41.7405 64.4964 41.804 65.1855 41.9311C65.8812 42.0582 66.4599 42.2288 66.9215 42.4429C67.3831 42.6503 67.7477 42.8945 68.0153 43.1755C68.2829 43.4497 68.4836 43.7374 68.6174 44.0385C68.7512 44.3395 68.8348 44.6439 68.8683 44.9516C68.9017 45.2527 68.9184 45.537 68.9184 45.8046V54.3944C68.9184 54.662 68.9017 54.9497 68.8683 55.2574C68.8348 55.5652 68.7512 55.8729 68.6174 56.1806C68.4836 56.4817 68.2829 56.7727 68.0153 57.0537C67.7477 57.3346 67.3831 57.5822 66.9215 57.7962C66.4599 58.0103 65.8812 58.1809 65.1855 58.308C64.4964 58.4418 63.6602 58.5087 62.6768 58.5087Z" fill="black"/>
<path d="M75.7341 54.1737L75.3227 58.1174H70.1547L72.7237 42.1118H81.3336L83.9025 58.1174H78.7145L78.3231 54.1737H75.7341ZM75.995 52.3774H78.0622L77.0186 44.4599L75.995 52.3774Z" fill="black"/>
<path d="M79.1717 35.853H84.3095L81.3124 42.7035H76.1746L79.1717 35.853Z" fill="black"/>
<path d="M14.9484 57.2607H20.0863L17.0892 64.1112H11.9514L14.9484 57.2607Z" fill="black"/>
</svg>
